<?xml version="1.0" encoding="utf-8"?>
<!-- Generator: Adobe Illustrator 22.1.0, SVG Export Plug-In . SVG Version: 6.00 Build 0)  -->
<svg version="1.1" id="图层_1" xmlns="http://www.w3.org/2000/svg" xmlns:xlink="http://www.w3.org/1999/xlink" x="0px" y="0px"
	 viewBox="0 0 595.3 147" style="enable-background:new 0 0 595.3 147;" xml:space="preserve">
<style type="text/css">
	.st0{fill:#FFFFFF;}
	.st1{fill:#2A72DB;}
	.st2{fill:#EA2929;}
	.st3{fill:#3FB891;}
	.st4{fill:#F06794;}
</style>
<g>
	<g>
		<g>
			<path class="st0" d="M176,58.5h-17v-4.6h17v-4.6h5v4.6h19.1v-4.8h5v4.8h17v4.6h-17v4.4H219v4.6h-13.9v4.6h21v4.6h-18.5
				c4.6,4.4,11.6,8.4,20.8,11.8l-3.8,4.2c-2.3-1-4.4-2.3-6.5-3.2c-1.9-1-3.8-1.9-5.3-2.9v13.7h-5V86.7h-35.1v13.4h-5V86.9
				c-1.5,1-3.4,2.1-5.3,2.9c-1.9,1-4,2.1-6.3,3.2l-3.8-4.2c9.2-3.6,16.2-7.6,20.8-12h-18.7v-4.6h21.2v-4.6h-13.7V63H176V58.5
				L176,58.5z M188.6,43c-0.2-0.8-1.1-2.7-2.3-5.5l5.3-1l2.5,6.7H225v10.7h-4.8V48h-58.6v5.9h-4.8V43.2h31.9L188.6,43L188.6,43z
				 M193.8,88.2c-1.3,7.4-4.4,12.8-9.7,16.4c-5,3.4-13.7,5.7-25.6,6.9l-1.7-5c10.5-0.8,18.1-2.5,22.9-5.3c4.8-2.9,8-7.4,9-13.7
				L193.8,88.2z M180.2,76.4c-1.7,1.9-3.6,3.6-5.5,5.3h32.1c-0.8-0.8-1.9-1.5-2.7-2.3s-1.9-1.9-2.7-2.7h-21.2V76.4z M200.3,58.5H181
				v4.4h19.1v-4.4H200.3z M200.3,72v-4.6H181V72H200.3z M221.1,111.7c-4.8-1.9-9.7-3.8-14.5-5.5s-9.7-3.4-14.5-5l2.3-4.4L206,101
				c3.6,1.3,6.9,2.3,9.9,3.4s5.7,2.1,8,2.9L221.1,111.7z"/>
			<path class="st0" d="M258.1,49.9V37.3h5v12.6h16.2v55.2H274v-6.5h-27v7.1h-5v-56h16.2L258.1,49.9L258.1,49.9z M258.1,71.6V54.8
				H247v16.8H258.1z M258.1,93.8V76.4H247v17.4H258.1z M263.1,54.8v16.8H274V54.8H263.1z M263.1,76.4v17.4H274V76.4H263.1z
				 M312.1,42.4l-9.2,25c2.1,1.9,4.2,4.6,6.3,8.2c1.9,3.6,2.7,7.6,2.7,12s-0.8,7.6-2.5,9.7s-5.3,2.9-10.7,2.9h-5.3l-1.7-5.7
				c3.4,0.4,6.1,0.4,8.6,0.6c2.5,0,4.2-0.4,5-1.7c0.8-1,1.5-3.4,1.5-6.7c0-3.4-1-6.7-3.2-10.1c-2.1-3.6-4-6.3-6.3-8l8-21.4h-14.5
				v64.5h-5V42.4H312.1L312.1,42.4z"/>
			<path class="st0" d="M346.3,69.9V65h73.3v4.8h-41.2c-1.3,2.9-2.5,5.9-3.8,8.4s-2.5,5-3.8,7.4s-2.7,4.8-4,7.1
				c-1.5,2.3-3.2,5-4.8,7.8l42.6-2.1c-1.7-2.9-3.4-5.7-5-8.6s-3.6-5.9-5.7-9l4.4-2.5c1.9,2.7,3.6,5.5,5,8c1.5,2.5,2.9,5,4.4,7.4
				c1.5,2.5,2.7,4.8,4.2,7.4s2.9,5.3,4.4,8.2l-4.8,2.3c-0.8-1.5-1.5-2.7-2.1-4s-1.3-2.7-2.1-4l-46.8,2.3c-1.3,0.2-2.5,0.4-3.6,0.6
				c-1,0.2-2.3,0.6-3.8,1.3l-2.1-5.5c1.7-0.6,2.9-1,3.8-1.3c0.8-0.4,1.5-1,2.1-2.1c1.9-2.7,3.4-5.3,4.8-7.8c1.5-2.3,2.7-4.6,4-6.9
				s2.3-4.6,3.4-6.9c1-2.3,2.1-4.8,3.2-7.4L346.3,69.9L346.3,69.9z M354.5,47.2v-4.8h57.1v4.8H354.5z"/>
			<path class="st0" d="M441,71.6h-9.7v-4.8h14.9v30.9c1.3,0.4,3.4,1.3,6.5,2.9c3.2,1.7,7.1,2.9,12.4,3.6c5.3,0.8,11.1,1,18.1,1
				c6.9,0,14.7-0.2,23.5-0.6l-1.3,5.3c-6.1,0.2-12,0.4-17.4,0.4s-10.7,0-15.3-0.4c-4.8-0.2-9-0.8-12.8-1.7c-3.8-0.8-6.9-1.9-9.7-3.6
				c-3.8-1.9-6.3-2.7-7.4-2.7c-1.3,0-2.5,0.6-3.8,2.1c-1.3,1.3-2.5,3.6-4.2,6.9l-4.6-2.5c2.1-3.6,4-6.1,5.7-8s3.4-2.9,4.8-3.4V71.6
				H441L441,71.6z M444.4,56.2c-1.9-2.7-3.6-5.5-5.5-8s-3.8-5-5.7-7.4l4.6-2.5c2.1,2.5,4,5,5.9,7.6s3.8,5,5.5,7.8L444.4,56.2z
				 M489.1,44.7h-34v-4.8h45.2V43L482,56.4h18.5v35.5c0,2.3-0.2,4.2-0.6,5.3c-0.4,1.3-1.3,2.1-2.3,2.5c-0.6,0.2-1.3,0.4-2.1,0.4
				s-1.9,0.2-2.7,0.2c-1,0-2.1,0-3.2,0c-1,0-2.1,0-3.2,0l-2.1-5.3c2.3,0.2,4,0.4,5.5,0.6s2.5,0,3.4-0.2s1.5-0.6,1.7-1.3
				s0.4-1.5,0.4-2.5v-4.2h-14.7v13.2h-5V87.5h-15.1v12.8h-5V56.2h16c-2.1-1.5-4-2.9-5.7-4c-1.5-1.3-2.9-2.1-4-2.9l3.8-3.4
				c1.9,1.3,3.8,2.7,5.7,4c1.9,1.5,3.6,2.7,5.5,4L489.1,44.7z M460.4,69.5h15.3v-8.4h-15.3V69.5L460.4,69.5z M475.7,74.3h-15.3v8.4
				h15.3V74.3L475.7,74.3z M480.7,69.5h14.7v-8.4h-14.7V69.5z M495.5,74.3h-14.7v8.4h14.7V74.3z"/>
			<path class="st0" d="M527.8,65.9c-0.8,1.9-2.1,3.8-3.4,5.9c-1.3,2.1-2.7,4.2-4.4,6.7l-4.2-2.5c8.2-11.8,14.5-24.8,18.7-39.1
				l5,1.5c-2.1,6.5-4.2,12.2-6.7,17.4v55.9h-5L527.8,65.9L527.8,65.9z M563.1,47l-4.8-8.8l5.3-1.7c2.3,4,4.2,7.4,5.7,10.5h21.4v4.8
				h-50V47H563.1L563.1,47z M587,64.4h-43.9v-4.8H587V64.4z M587,76.8h-43.5V72H587V76.8z M549.9,106.4v4.8h-5V84.4h40.8V111h-5
				v-4.8H550L549.9,106.4L549.9,106.4z M580.5,101.4V89.6h-30.7v11.8H580.5z"/>
		</g>
		<circle class="st0" cx="326.8" cy="75.1" r="4.4"/>
	</g>
	<g>
		<path class="st1" d="M59.2,26.4c6.1,0.8,11.7,2.7,17.1,5.9C85.1,37.4,92,45.7,96,55c2.9,7.2,4,15.2,2.9,23.2
			C98.1,84.1,96.2,89.9,93,95c6.7-3.7,12.5-9.3,16.3-16c2.9-4.8,4.8-10.1,5.3-15.7c0.8-7.2,0-14.7-2.7-21.6
			C106.7,28,94.7,18.4,80.5,15.5c-1.9-0.3-3.7-0.5-5.3-0.8c-19.5-1.6-39,6.7-51.2,21.6c3.7-2.9,8-5.6,12.3-7.2
			C43.7,26.4,51.7,25.4,59.2,26.4z"/>
		<path class="st2" d="M22.4,85.4c0.8-6.1,2.7-11.7,5.9-17.1c5.1-8.8,13.1-15.7,22.4-19.7c7.5-2.9,15.5-4,23.5-2.9
			c5.9,0.8,11.5,2.7,16.5,5.6C86.9,44.6,81.3,39,74.9,35c-4.8-2.9-10.1-4.8-15.7-5.3c-7.2-0.8-14.4,0-21.3,2.7
			C26.1,37.1,17,46.5,13,58.5c-0.8,2.7-1.3,5.6-1.6,8.3c-0.3,2.7-0.5,5.6-0.5,8.5c0.3,17.6,8.3,34.1,21.9,45.4
			c-2.9-3.7-5.3-7.7-7.2-12C22.4,101.1,21.3,93.1,22.4,85.4z"/>
		<path class="st3" d="M129.9,80.1c1.9-20-6.4-39.5-21.9-52c3.2,3.7,5.6,7.7,7.5,12.3c2.9,7.2,4,15.5,2.9,23.2
			c-0.8,6.1-2.7,11.7-5.9,17.1c-5.1,9.1-13.3,16-23.2,19.7c-7.2,2.9-15.2,3.7-22.7,2.7c-5.9-0.8-11.7-2.7-16.8-5.6
			c3.7,6.7,9.3,12.3,15.7,16c4.8,2.9,10.1,4.8,15.7,5.3c7.5,0.8,14.9,0,21.9-2.9c13.6-5.6,23.5-17.6,25.9-31.7
			c0.3-0.8,0.3-1.6,0.3-2.1C129.6,81.4,129.6,80.9,129.9,80.1L129.9,80.1z"/>
		<path class="st4" d="M81.1,122.2c-6.1-0.8-11.7-2.7-17.1-5.9c-8.8-5.1-15.7-13.3-19.7-22.7c-2.9-7.2-4-15.2-2.9-23.2
			c0.8-5.9,2.7-11.2,5.3-16.5c-6.4,3.7-12,9.3-15.7,15.7c-2.9,4.8-4.8,10.1-5.3,15.7c-0.8,7.2,0,14.7,2.7,21.3
			c4.8,12,14.4,21.1,26.7,24.8c5.1,1.3,10.1,2.1,15.5,2.1c18.4,0,35.5-8.5,46.7-22.7c-3.7,3.2-8,5.9-12.8,7.7
			C97.1,122.2,88.8,123.3,81.1,122.2z"/>
	</g>
</g>
</svg>
