<?xml version="1.0" encoding="UTF-8"?>
<svg width="104px" height="34px" viewBox="0 0 104 34" version="1.1" xmlns="http://www.w3.org/2000/svg" xmlns:xlink="http://www.w3.org/1999/xlink">
    <!-- Generator: Sketch 54 (76480) - https://sketchapp.com -->
    <title>未命名 2</title>
    <desc>Created with Sketch.</desc>
    <g id="页面1" stroke="none" stroke-width="1" fill="none" fill-rule="evenodd">
        <g id="6405a1c" fill-rule="nonzero">
            <g id="_编组_" fill="#0063FF">
                <path d="M35.25,33.94 L32.5,33.94 C31.5003646,33.94 30.69,33.1296354 30.69,32.13 C30.69,31.1303646 31.5003646,30.32 32.5,30.32 L35.25,30.32 C39.543463,30.3241294 43.274094,27.3703059 44.2546736,23.1903173 C45.2352531,19.0103286 43.2073927,14.7056262 39.36,12.8 C38.6558985,12.4600162 38.2518074,11.7043657 38.36,10.93 L39.08,6 L34.25,8.08 C33.4697224,8.41971533 32.5581706,8.16997511 32.06,7.48 C30.3290405,5.05916147 27.5360175,3.62268589 24.56,3.62268589 C21.5839825,3.62268589 18.7909595,5.05916147 17.06,7.48 C16.5618294,8.16997511 15.6502776,8.41971533 14.87,8.08 L10,6 L10.72,11 C10.8281926,11.7743657 10.4241015,12.5300162 9.72,12.87 C6.64889328,14.4183052 4.68891312,17.5411812 4.63,20.98 C4.60352521,23.4226632 5.56238892,25.7729608 7.29,27.5 C9.09357616,29.3220564 11.5463059,30.3542169 14.11,30.37 L21.58,30.37 C24.3279218,30.2487059 26.4933395,27.9855975 26.4933395,25.235 C26.4933395,22.4844025 24.3279218,20.2212941 21.58,20.1 C20.5803646,20.1 19.77,19.2896354 19.77,18.29 C19.77,17.2903646 20.5803646,16.48 21.58,16.48 C26.3001289,16.6395467 30.0440693,20.5121754 30.0440693,25.235 C30.0440693,29.9578246 26.3001289,33.8304533 21.58,33.99 L14.1,33.99 C10.5601081,33.9660111 7.17630058,32.5296928 4.7,30 C2.28421178,27.5853716 0.949401939,24.2952457 1,20.88 C1.0630614,16.5648424 3.29133274,12.5704875 6.93,10.25 L5.93,3.25 C5.83674992,2.59819223 6.1048217,1.94716079 6.63,1.55 C7.14797713,1.1518544 7.84172719,1.06753119 8.44,1.33 L15.05,4.2 C17.486643,1.52939307 20.9348416,0.0077332677 24.55,0.0077332677 C28.1651584,0.0077332677 31.613357,1.52939307 34.05,4.2 L40.59,1.38 C41.1918548,1.11966007 41.8874487,1.20520579 42.4082888,1.60361731 C42.9291288,2.00202882 43.1937458,2.65098704 43.1,3.3 L42.1,10.2 C46.9401107,13.2598546 49.1740056,19.1512948 47.579482,24.6510108 C45.9849583,30.1507268 40.9462002,33.9336185 35.22,33.93 L35.25,33.94 Z" id="_路径_"></path>
            </g>
            <g id="_编组_2" transform="translate(59.000000, 9.000000)" fill="#FFFFFF">
                <path d="M5.66,2 L5.26,2.48 C5.02115784,2.02584675 4.74697975,1.59117416 4.44,1.18 C4.06168493,0.699512306 3.36548775,0.616685007 2.88500004,0.995000047 C2.40451232,1.37331509 2.32168499,2.06951227 2.7,2.55 C3.13591008,3.10176164 3.47412993,3.72408617 3.7,4.39 L1.32,7.23 C1.13405675,7.4553135 1.04537602,7.74533789 1.0735154,8.03611141 C1.10165477,8.32688494 1.2443028,8.59452267 1.47,8.78 C1.66499688,8.94714062 1.91317456,9.0393209 2.17,9.04 C2.49857068,9.03904297 2.80983367,8.89256627 3.02,8.64 L4.02,7.45 L4.02,10.64 L1.14,14.11 C0.952900263,14.3340566 0.862528908,14.6232927 0.888787495,14.9140127 C0.915046081,15.2047328 1.05578113,15.4730948 1.28,15.66 C1.47453996,15.8279151 1.72301509,15.9202059 1.98,15.92 C2.30857068,15.919043 2.61983367,15.7725663 2.83,15.52 L4,14.09 L4,14.43 C4.00155256,15.5656382 3.6901559,16.6797462 3.1,17.65 L2.72,18.27 C2.41222751,18.7956973 2.58104908,19.4709836 3.1,19.79 C3.26949546,19.8996429 3.46820583,19.9554213 3.67,19.95 C4.05390413,19.9477776 4.40940452,19.7473359 4.61,19.42 L4.99,18.79 C5.7821828,17.4736854 6.20051502,15.9663065 6.2,14.43 L6.2,6.37 C6.20019031,5.89081085 6.16004863,5.41245582 6.08,4.94 L7.34,3.42 C7.72053865,2.95513149 7.65772599,2.27093531 7.19890705,1.88312406 C6.7400881,1.49531281 6.0549877,1.54734438 5.66,2 Z" id="_路径_6"></path>
                <path d="M8.93,4.7 L20.93,4.7 C21.5375132,4.7 22.03,4.20751322 22.03,3.6 C22.03,2.99248678 21.5375132,2.5 20.93,2.5 L20.34,2.5 L20.34,1.91 C20.34,1.30248678 19.8475132,0.81 19.24,0.81 C18.6324868,0.81 18.14,1.30248678 18.14,1.91 L18.14,2.5 L11.94,2.5 L11.94,1.91 C11.94,1.30248678 11.4475132,0.81 10.84,0.81 C10.2324868,0.81 9.74,1.30248678 9.74,1.91 L9.74,2.5 L8.93,2.5 C8.32248678,2.5 7.83,2.99248678 7.83,3.6 C7.83,4.20751322 8.32248678,4.7 8.93,4.7 Z" id="_路径_7"></path>
                <path d="M28.34,3.31 L42.23,3.31 C42.8375132,3.31 43.33,2.81751322 43.33,2.21 C43.33,1.60248678 42.8375132,1.11 42.23,1.11 L28.34,1.11 C27.9470078,1.10999999 27.5838681,1.31965881 27.387372,1.65999999 C27.190876,2.00034118 27.190876,2.41965882 27.387372,2.76000001 C27.5838681,3.10034119 27.9470078,3.31000001 28.34,3.31 Z" id="_路径_8"></path>
                <path d="M26.67,10 L32.29,10 L27.22,15.31 C26.4618245,16.1057687 26.2525493,17.2775829 26.6884076,18.286595 C27.124266,19.2956071 28.1208933,19.9465131 29.22,19.94 L41.37,19.94 C42.4691067,19.9465131 43.465734,19.2956071 43.9015924,18.286595 C44.3374507,17.2775829 44.1281755,16.1057687 43.37,15.31 L38.28,10 L43.9,10 C44.5075132,9.99999997 45,9.50751321 45,8.9 C45,8.29248679 44.5075132,7.80000003 43.9,7.8 L26.67,7.8 C26.0624868,7.8 25.57,8.29248678 25.57,8.9 C25.57,9.50751322 26.0624868,10 26.67,10 Z M41.86,17.41 C41.7778884,17.6071783 41.5835529,17.7340912 41.37,17.73 L29.2,17.73 C28.9864471,17.7340912 28.7921116,17.6071783 28.71,17.41 C28.613963,17.2154473 28.6543574,16.9811597 28.81,16.83 L35.28,10.06 L41.76,16.83 C41.9236867,16.9893034 41.9642552,17.2367717 41.86,17.44 L41.86,17.41 Z" id="_复合路径_5"></path>
                <path d="M22,16.43 L22,9.36 C21.994507,7.41823751 20.4217625,5.845493 18.48,5.84 L11.32,5.84 C9.37823751,5.845493 7.805493,7.41823751 7.8,9.36 L7.8,16.43 C7.78932835,17.3713945 8.15514788,18.2780488 8.81614591,18.948436 C9.47714394,19.6188232 10.3785487,19.9973935 11.32,20 L18.46,20 C19.4049184,20.0027375 20.3114876,19.6265219 20.9768234,18.9555476 C21.6421593,18.2845733 22.0107113,17.3748617 22,16.43 Z M19.8,9.36 L19.8,11.57 L16,11.57 L16,8 L18.47,8 C18.8253897,8.00252893 19.164745,8.14825917 19.4113005,8.40422523 C19.6578561,8.66019128 19.7907787,9.00476476 19.78,9.36 L19.8,9.36 Z M11.32,8 L13.79,8 L13.79,11.53 L10,11.53 L10,9.36 C9.98632269,9.00224395 10.1196627,8.65447781 10.369013,8.39757144 C10.6183633,8.14066507 10.9619951,7.99700569 11.32,8 Z M10,16.43 L10,13.78 L13.78,13.78 L13.78,17.78 L11.32,17.78 C10.9637919,17.7828857 10.6217686,17.6405866 10.3727291,17.3858871 C10.1236896,17.1311876 9.98911137,16.7860533 10,16.43 Z M18.45,17.74 L16,17.74 L16,13.74 L19.79,13.74 L19.79,16.39 C19.7981266,16.7469958 19.6612704,17.0920533 19.4106622,17.3464301 C19.1600539,17.6008069 18.8170773,17.7427977 18.46,17.74 L18.45,17.74 Z" id="_复合路径_6"></path>
            </g>
        </g>
    </g>
</svg>